<svg height="512pt" viewBox="0 0 512 512" width="512pt" xmlns="http://www.w3.org/2000/svg"><path d="m512 256c0 141.386719-114.613281 256-256 256s-256-114.613281-256-256 114.613281-256 256-256 256 114.613281 256 256zm0 0" fill="#ffd400"/><path d="m512 256c0-9.320312-.511719-18.519531-1.480469-27.582031l-121.179687-121.175781-264.972656 223.445312 52.492187 52.496094-39.859375 55.816406 67.890625 67.890625c16.515625 3.347656 33.605469 5.109375 51.109375 5.109375 141.386719 0 256-114.613281 256-256zm0 0" fill="#fdba12"/><path d="m256 60c-103.339844 0-187.109375 70.84375-187.109375 158.234375 0 49.167969 26.515625 93.09375 68.109375 122.117187v98.648438l100.277344-63.3125c6.160156.515625 12.402344.785156 18.722656.785156 103.339844 0 187.109375-70.84375 187.109375-158.238281 0-87.390625-83.769531-158.234375-187.109375-158.234375zm0 0" fill="#4a7aff"/><path d="m256 60c-.351562 0-.703125.011719-1.054688.011719v316.449219c.351563.003906.703126.011718 1.054688.011718 103.339844 0 187.109375-70.84375 187.109375-158.238281 0-87.390625-83.769531-158.234375-187.109375-158.234375zm0 0" fill="#0053bf"/><path d="m279.371094 291.347656-58.074219-61.933594-113.296875 61.933594 124.632812-132.308594 59.480469 61.933594 111.886719-61.933594zm0 0" fill="#fff"/><path d="m404 159.039062-111.886719 61.933594-37.167969-38.703125v83.023438l24.425782 26.054687zm0 0" fill="#dce1eb"/></svg>